<svg xmlns="http://www.w3.org/2000/svg" viewBox="0 0 64 64" fill="none">
  <circle cx="32" cy="32" r="30" stroke="#7ef29d" stroke-width="4" fill="#102915"/>
  <circle cx="32" cy="32" r="6" fill="#c1ff72"/>
  <path d="M32 26c-1.4 0-2.7.3-3.9.8L16.6 8.8C20.7 6.4 26.1 5 32 5s11.3 1.4 15.4 3.8L35.9 26.8c-1.2-.5-2.5-.8-3.9-.8Z" fill="#62d96b"/>
  <path d="M40.9 30.3c.8 1.2 1.4 2.6 1.7 4.1.3 1.4.3 2.9 0 4.3l20.6 3.6c1-4.3.8-9.1-.8-13.7-1.5-4.6-4.2-8.5-7.5-11.4L40.9 30.3Z" fill="#4ab869"/>
  <path d="M26.2 34.4c-.3-1.4-.3-2.9 0-4.3.3-1.5.9-2.9 1.7-4.1L8.1 15.8c-3.3 2.9-6 6.8-7.5 11.4-1.6 4.6-1.8 9.4-.8 13.7l20.6-3.6Z" fill="#4ab869"/>
  <path d="M32 38c1.4 0 2.7-.3 3.9-.8l12.6 17.9C43.3 57.6 38 59 32 59s-11.3-1.4-15.4-3.8l12.5-17.9c1.2.5 2.6.8 3.9.8Z" fill="#62d96b"/>
  <path d="M23.1 33.7c-.8 1.2-1.4 2.6-1.7 4.1-.3 1.4-.3 2.9 0 4.3L.8 45.7c1 4.3 3 8.3 6 11.6 3 3.3 6.7 5.7 10.7 7l6.7-20.8c-1.6-.7-3-1.8-4.1-3.2-.9-1.4-1.6-3-1.8-4.6Z" fill="#3c9e4f" opacity=".85"/>
  <path d="M40.9 33.7c.8 1.2 1.4 2.6 1.7 4.1.3 1.4.3 2.9 0 4.3l6.7 20.8c4-1.3 7.7-3.7 10.7-7 3-3.3 5-7.3 6-11.6l-20.6-3.6c-.3-1.6-.9-3.2-1.8-4.6-1.1-1.4-2.5-2.5-4.1-3.2Z" fill="#3c9e4f" opacity=".85"/>
</svg>
