<svg xmlns="http://www.w3.org/2000/svg" viewBox="0 0 64 64" fill="none">
  <defs>
    <linearGradient id="body" x1="12" y1="32" x2="52" y2="32" gradientUnits="userSpaceOnUse">
      <stop offset="0" stop-color="#9bd6ff"/>
      <stop offset="1" stop-color="#dff5ff"/>
    </linearGradient>
    <linearGradient id="panel" x1="0" y1="32" x2="24" y2="32" gradientUnits="userSpaceOnUse">
      <stop offset="0" stop-color="#1f6db6"/>
      <stop offset="1" stop-color="#58b4ff"/>
    </linearGradient>
    <linearGradient id="panelR" x1="40" y1="32" x2="64" y2="32" gradientUnits="userSpaceOnUse">
      <stop offset="0" stop-color="#58b4ff"/>
      <stop offset="1" stop-color="#1f6db6"/>
    </linearGradient>
  </defs>
  <rect x="4" y="22" width="16" height="20" rx="4" fill="url(#panel)" stroke="#8fd0ff" stroke-width="2" opacity="0.9"/>
  <rect x="44" y="22" width="16" height="20" rx="4" fill="url(#panelR)" stroke="#8fd0ff" stroke-width="2" opacity="0.9"/>
  <rect x="20" y="25" width="24" height="14" rx="4" fill="url(#body)" stroke="#eff8ff" stroke-width="2"/>
  <circle cx="32" cy="32" r="6" fill="#ffffff" stroke="#9bd6ff" stroke-width="2"/>
  <path d="M32 12 L36 24 L28 24 Z" fill="#9bd6ff" opacity="0.8"/>
  <path d="M32 52 L36 40 L28 40 Z" fill="#9bd6ff" opacity="0.8"/>
  <circle cx="32" cy="32" r="2" fill="#1a5d9f"/>
  <g stroke="#b5e4ff" stroke-width="1.5" stroke-linecap="round" opacity="0.7">
    <path d="M16 16 L24 24"/>
    <path d="M48 16 L40 24"/>
    <path d="M16 48 L24 40"/>
    <path d="M48 48 L40 40"/>
  </g>
</svg>
